<svg version="1.1" id="Layer_1" xmlns="http://www.w3.org/2000/svg" xmlns:xlink="http://www.w3.org/1999/xlink" x="0px" y="0px"
	 width="100%" viewBox="0 0 896 896" enable-background="new 0 0 896 896" xml:space="preserve">
<path fill="#000000" opacity="1.000000" stroke="none" 
	d="
M460.498535,622.593872 
	C473.358643,620.934387 485.110901,617.625610 494.964264,609.401306 
	C506.961090,599.387939 514.083740,586.289429 515.324768,571.067932 
	C517.666992,542.338989 518.492554,513.437561 514.719360,484.774841 
	C511.329590,459.024078 495.055115,443.302246 469.572632,439.962891 
	C445.252686,436.775879 424.745728,445.320801 407.150238,461.761932 
	C401.532501,467.011169 396.531830,472.832703 392.124115,479.116913 
	C390.207703,481.849152 387.980469,483.140106 384.634247,483.076447 
	C377.304199,482.936981 369.965088,482.856079 362.639160,483.072174 
	C357.993439,483.209259 356.679810,481.239899 356.686462,476.791138 
	C356.776978,416.297882 356.756348,355.804352 356.644470,295.311096 
	C356.636719,291.120483 358.177643,289.821106 362.218353,289.826141 
	C420.878662,289.898865 479.539124,289.896637 538.199341,289.797760 
	C542.633362,289.790283 544.087952,291.600250 543.983459,295.777618 
	C543.812744,302.605865 543.955383,309.441589 543.934143,316.274048 
	C543.907715,324.786804 543.658203,325.037781 535.318542,325.037506 
	C490.823334,325.035980 446.328156,325.029785 401.832947,325.021179 
	C394.263947,325.019714 394.254059,325.010620 394.251160,332.773621 
	C394.239899,362.936920 394.230957,393.100220 394.239136,423.263519 
	C394.239655,425.210449 393.992340,427.219086 394.891602,429.094482 
	C397.621826,429.242828 398.906219,427.284912 400.455444,425.922791 
	C436.507568,394.224945 493.243805,399.614532 520.798767,421.558624 
	C538.417847,435.590057 548.790466,454.122253 551.648560,475.880035 
	C556.236938,510.810364 556.648254,546.180664 551.767822,581.004272 
	C545.620605,624.866516 514.345276,652.782837 470.333618,657.344299 
	C450.588257,659.390747 431.028870,659.160278 412.128571,652.182678 
	C380.892639,640.650940 362.532959,617.422791 353.066223,586.344360 
	C351.516571,581.257019 350.631287,575.969910 349.357849,570.795105 
	C348.379120,566.818054 350.065308,565.166992 353.933899,565.165894 
	C362.599365,565.163330 371.268036,565.263916 379.928925,565.054504 
	C384.430054,564.945740 386.537720,566.678284 387.196808,571.222046 
	C388.932526,583.187866 393.616364,593.941833 401.645020,603.083801 
	C413.268005,616.318481 428.450409,621.778870 445.557373,622.728088 
	C450.370453,622.995178 455.215607,622.684326 460.498535,622.593872 
z"/>
<path fill="#000000" opacity="1.000000" stroke="none" 
	d="
M735.790527,658.112549 
	C717.060364,659.305359 698.986145,658.411560 681.617249,652.068359 
	C650.423706,640.676514 632.669312,617.418335 624.968384,586.003967 
	C617.364746,554.986572 620.469727,524.192017 628.207153,493.593475 
	C634.348206,469.307922 645.567627,447.197968 656.790283,425.049652 
	C678.545410,382.114868 700.271606,339.164825 721.781860,296.107239 
	C724.143188,291.380493 726.893677,289.531128 732.155334,289.751465 
	C741.634033,290.148468 751.142273,289.798553 760.637573,289.859100 
	C766.041870,289.893555 766.532532,290.865601 764.056885,295.703522 
	C739.401855,343.884155 714.752991,392.067932 690.139587,440.269775 
	C689.348206,441.819550 687.983398,443.255066 688.533386,445.944275 
	C696.135681,442.173218 703.829529,439.139648 712.117737,438.228729 
	C744.716614,434.645996 774.690125,440.013733 798.432495,464.830078 
	C813.391174,480.465363 820.499695,499.889374 823.367188,520.971680 
	C826.866028,546.695862 826.212769,572.230530 817.340698,596.918884 
	C804.649658,632.234558 779.209839,652.058594 742.200317,657.295227 
	C740.221619,657.575195 738.238342,657.822510 735.790527,658.112549 
M716.856445,622.729004 
	C720.851379,622.731079 724.865112,622.987610 728.838196,622.693787 
	C754.193481,620.819153 773.216431,609.308044 781.774597,584.713501 
	C790.556091,559.477417 789.447205,533.951599 779.720215,509.007507 
	C776.731567,501.343323 771.931519,494.712433 765.882568,489.045502 
	C752.649597,476.648254 736.558960,472.721527 718.971863,472.993896 
	C693.050537,473.395355 674.657959,485.473267 665.401917,509.569427 
	C656.618042,532.436218 655.784363,556.036072 662.018982,579.702759 
	C665.515320,592.975159 672.865845,603.959534 684.105286,612.062927 
	C693.583252,618.896362 704.527100,621.528564 716.856445,622.729004 
z"/>
<path fill="#000000" opacity="1.000000" stroke="none" 
	d="
M242.975266,376.097473 
	C241.905472,346.311401 223.742615,326.181702 194.708481,322.219360 
	C173.299622,319.297607 153.013992,321.389343 136.019485,336.443726 
	C123.348434,347.668243 117.278786,362.447296 114.216263,378.707062 
	C112.682259,386.851562 112.675537,386.862793 104.297607,386.887939 
	C95.799637,386.913422 87.301552,386.902527 78.803566,386.924713 
	C75.639015,386.932983 73.512985,385.922180 74.145729,382.227081 
	C78.683441,355.727661 87.801521,331.446655 107.796478,312.375122 
	C125.655563,295.340790 147.383118,287.486176 171.555054,286.122925 
	C191.508728,284.997620 211.225250,286.882812 229.915802,294.678528 
	C262.002960,308.061859 277.904083,333.129944 282.240204,366.851593 
	C285.668243,393.510956 276.394104,416.613800 263.598663,438.958588 
	C252.031189,459.158966 236.844833,476.717010 222.710724,495.031342 
	C191.873337,534.989197 160.841721,574.797119 129.906418,614.679443 
	C129.012238,615.832275 127.779686,616.849304 127.803574,618.672729 
	C129.739532,620.430725 132.182037,619.653442 134.379944,619.656860 
	C182.035614,619.731689 229.691360,619.740540 277.347107,619.760254 
	C284.822540,619.763367 285.013031,619.933044 285.036407,627.191772 
	C285.060028,634.523315 284.925720,641.858643 285.121307,649.185303 
	C285.236053,653.483521 283.500885,655.161011 279.223145,655.103699 
	C267.561035,654.947327 255.895798,655.011047 244.231796,655.014343 
	C191.577133,655.029175 138.922470,655.056274 86.267799,655.071167 
	C77.945068,655.073486 77.944916,655.055115 77.964424,646.716370 
	C77.965981,646.049866 77.972153,645.383362 77.974663,644.716858 
	C78.053284,623.853882 78.291161,624.036194 91.033737,607.409363 
	C134.103058,551.211304 177.101273,494.957672 219.863464,438.525848 
	C230.387817,424.637268 238.368790,409.259491 242.168152,392.005737 
	C243.292557,386.899597 243.083832,381.741364 242.975266,376.097473 
z"/>
</svg>